<?xml version="1.0" encoding="UTF-8"?><svg id="Main" xmlns="http://www.w3.org/2000/svg" viewBox="0 0 386 146"><defs><style>.cls-1{fill:#fff;}.cls-2{fill:#7fba00;}.cls-3{fill:#f1f2f2;}.cls-4{fill:#f25022;}.cls-5{fill:#ffb900;}.cls-6{fill:red;}.cls-7{fill:#00a4ef;}</style></defs><g id="Frame"><g id="Red"><path class="cls-6" d="m73,144.5C33.57,144.5,1.5,112.42,1.5,73S33.57,1.5,73,1.5h240c39.42,0,71.5,32.07,71.5,71.5s-32.08,71.5-71.5,71.5H73Z"/><path class="cls-1" d="m313,3c38.66,0,70,31.34,70,70h0c0,38.66-31.34,70-70,70H73c-38.66,0-70-31.34-70-70h0C3,34.34,34.34,3,73,3h240m0-3H73C32.75,0,0,32.75,0,73s32.75,73,73,73h240c40.25,0,73-32.75,73-73S353.25,0,313,0h0Z"/></g><rect id="Black" x="23" y="20.5" width="340" height="105" rx="52.5" ry="52.5"/></g><g id="Text"><path id="N" class="cls-3" d="m159.68,106.33v-48.33c0-9.17-6.92-18.33-13.84-18.33h-52.82v66.66h19.35v-43c0-3.33,1.89-6.67,4.4-6.67h18.15c2.52,0,5.03,3.33,5.03,6.67v43h19.72Z"/><path id="E" class="cls-3" d="m233.33,106.33h-50c-8.33,0-16.66-5.76-16.66-14.81v-51.85h66.66v15.64h-44.69c-2.27,0-5.3,2.47-5.3,5.76s3.03,5.76,5.3,5.76h41.66v13.17h-41.66c-2.27,0-5.3,3.29-5.3,5.76,0,3.29,3.03,6.58,5.3,6.58h44.69v13.99Z"/><path id="S" class="cls-3" d="m255.11,39.67c-4.91,0-15.44,9.17-15.44,15v9.17c0,5.83,10.53,15,15.44,15h30.87c2.81,0,5.61,3.33,5.61,5.83,0,3.33-2.81,6.67-5.61,6.67h-46.31v15h51.92c4.91,0,14.74-9.17,14.74-15v-9.17c0-6.67-9.82-15.83-14.74-15.83h-30.87c-2.81,0-5.61-2.5-5.61-5.83s2.81-5.83,5.61-5.83h45.61v-15h-51.22Z"/></g><g id="Dot"><rect id="BG" class="cls-3" x="66.33" y="86.33" width="20" height="20"/><g id="MS"><rect id="Y" class="cls-5" x="76.33" y="96.33" width="6.66" height="6.66"/><rect id="B" class="cls-7" x="69.66" y="96.33" width="6.66" height="6.66"/><rect id="G" class="cls-2" x="76.33" y="89.67" width="6.66" height="6.67"/><rect id="R" class="cls-4" x="69.66" y="89.67" width="6.66" height="6.67"/></g></g></svg>