<?xml version="1.0" encoding="UTF-8"?><svg id="Main" xmlns="http://www.w3.org/2000/svg" viewBox="0 0 500 500"><defs><style>.cls-1{fill:#fff;}.cls-2{fill:#f1f2f2;}.cls-3{fill:red;}</style></defs><rect id="BG_Color" width="500" height="500"/><g id="Frame"><g id="Red"><path class="cls-3" d="m130,321.5c-39.43,0-71.5-32.08-71.5-71.5s32.07-71.5,71.5-71.5h240c39.42,0,71.5,32.07,71.5,71.5s-32.08,71.5-71.5,71.5h-240Z"/><path class="cls-1" d="m370,180c38.66,0,70,31.34,70,70h0c0,38.66-31.34,70-70,70h-240c-38.66,0-70-31.34-70-70h0c0-38.66,31.34-70,70-70h240m0-3h-240c-40.25,0-73,32.75-73,73s32.75,73,73,73h240c40.25,0,73-32.75,73-73s-32.75-73-73-73h0Z"/></g><rect id="Black" x="80" y="197.5" width="340" height="105" rx="52.5" ry="52.5"/></g><g id="Text"><path id="N" class="cls-2" d="m216.68,283.33v-48.33c0-9.17-6.92-18.33-13.84-18.33h-52.82v66.66h19.35v-43c0-3.33,1.89-6.67,4.4-6.67h18.15c2.52,0,5.03,3.33,5.03,6.67v43h19.72Z"/><path id="E" class="cls-2" d="m290.33,283.33h-50c-8.33,0-16.66-5.76-16.66-14.81v-51.85h66.66v15.64h-44.69c-2.27,0-5.3,2.47-5.3,5.76s3.03,5.76,5.3,5.76h41.66v13.17h-41.66c-2.27,0-5.3,3.29-5.3,5.76,0,3.29,3.03,6.58,5.3,6.58h44.69v13.99Z"/><path id="S" class="cls-2" d="m312.11,216.67c-4.91,0-15.44,9.17-15.44,15v9.17c0,5.83,10.53,15,15.44,15h30.87c2.81,0,5.61,3.33,5.61,5.83,0,3.33-2.81,6.67-5.61,6.67h-46.31v15h51.92c4.91,0,14.74-9.17,14.74-15v-9.17c0-6.67-9.82-15.83-14.74-15.83h-30.87c-2.81,0-5.61-2.5-5.61-5.83s2.81-5.83,5.61-5.83h45.61v-15h-51.22Z"/></g><g id="Dot"><rect id="BG" class="cls-2" x="123.33" y="263.33" width="20" height="20"/></g></svg>